<?xml version="1.0" encoding="UTF-8" standalone="no"?>
<!-- Created with Inkscape (http://www.inkscape.org/) -->

<svg
   xmlns:dc="http://purl.org/dc/elements/1.1/"
   xmlns:cc="http://creativecommons.org/ns#"
   xmlns:rdf="http://www.w3.org/1999/02/22-rdf-syntax-ns#"
   xmlns:svg="http://www.w3.org/2000/svg"
   xmlns="http://www.w3.org/2000/svg"
   xmlns:sodipodi="http://sodipodi.sourceforge.net/DTD/sodipodi-0.dtd"
   xmlns:inkscape="http://www.inkscape.org/namespaces/inkscape"
   version="1.1"
   id="svg4801"
   width="327.67999"
   height="244.8"
   viewBox="0 0 327.67999 244.8"
   sodipodi:docname="munin.svg"
   inkscape:version="0.92.3 (2405546, 2018-03-11)">
  <metadata
     id="metadata4807">
    <rdf:RDF>
      <cc:Work
         rdf:about="">
        <dc:format>image/svg+xml</dc:format>
        <dc:type
           rdf:resource="http://purl.org/dc/dcmitype/StillImage" />
        <dc:title></dc:title>
      </cc:Work>
    </rdf:RDF>
  </metadata>
  <defs
     id="defs4805" />
  <sodipodi:namedview
     pagecolor="#ffffff"
     bordercolor="#666666"
     borderopacity="1"
     objecttolerance="10"
     gridtolerance="10"
     guidetolerance="10"
     inkscape:pageopacity="0"
     inkscape:pageshadow="2"
     inkscape:window-width="1868"
     inkscape:window-height="1028"
     id="namedview4803"
     showgrid="false"
     inkscape:zoom="1.6278595"
     inkscape:cx="68.324184"
     inkscape:cy="125.11072"
     inkscape:window-x="26"
     inkscape:window-y="26"
     inkscape:window-maximized="1"
     inkscape:current-layer="svg4801" />
  <path
     style="fill:#000000;stroke-width:0.31999999"
     d="m 131.98097,230.68922 c -0.10442,-0.16896 -0.71394,-0.55516 -1.35448,-0.85821 -0.64054,-0.30305 -1.38098,-0.93756 -1.64543,-1.41 -0.50718,-0.90611 -0.30276,-1.9619 1.90922,-9.86101 0.85604,-3.05695 1.09346,-6.28759 0.80332,-10.93104 l -0.23014,-3.68337 -1.73882,-0.85279 c -0.95635,-0.46904 -1.87963,-0.8528 -2.05173,-0.8528 -0.1721,0 -0.88126,0.56834 -1.5759,1.26298 -1.80048,1.80048 -3.05304,2.363 -5.29701,2.37887 -2.339,0.0166 -3.79635,-0.67724 -4.26866,-2.03213 -0.18593,-0.53335 -0.40113,-0.96972 -0.47823,-0.96972 -0.0771,0 -0.98473,0.56396 -2.01695,1.25325 -4.96665,3.31661 -9.47022,3.46613 -9.5219,0.31613 -0.01,-0.59916 0.0906,-1.52404 0.22308,-2.0553 l 0.24097,-0.96592 -2.96916,0.0258 c -1.63303,0.0142 -3.545153,0.2238 -4.249153,0.46582 -0.704,0.24203 -2.288,0.44909 -3.52,0.46015 -3.738038,0.0335 -5.990048,-1.77407 -5.430358,-4.35877 0.326998,-1.51009 1.928925,-4.61885 3.382067,-6.56336 1.205174,-1.6127 1.236221,-1.71938 1.041776,-3.57972 -0.144618,-1.38363 -0.05094,-2.37448 0.336448,-3.55886 0.295274,-0.90275 2.994425,-6.63588 5.998112,-12.74028 9.246458,-18.79161 11.707278,-24.21613 17.083888,-37.65891 2.28115,-5.70341 2.28195,-5.70714 1.46262,-6.74876 -0.42599,-0.54156 -0.67455,-1.32064 -0.67455,-2.11428 0,-1.60442 2.45889,-9.16251 4.66428,-14.33696 1.18501,-2.78036 1.69819,-4.40323 1.68307,-5.32247 -0.0425,-2.58556 2.00424,-6.983613 6.17621,-13.27121 1.47204,-2.218521 3.18044,-4.93335 3.79644,-6.03295 0.616,-1.099603 1.70915,-2.888477 2.42922,-3.975277 1.06498,-1.60735 1.24408,-2.082819 0.96,-2.548569 -0.42422,-0.695527 0.51098,-1.55754 3.57078,-3.291335 1.1,-0.623299 2,-1.242563 2,-1.376137 0,-0.133575 -0.288,-0.503498 -0.64,-0.822055 -0.95287,-0.862336 -0.78818,-1.119523 0.72,-1.124368 1.59462,-0.0051 2.8,-0.284141 2.8,-0.648137 0,-0.141824 -0.49681,-0.421821 -1.10401,-0.622215 C 143.03375,71.202698 141.44,69.36824 141.44,68.16775 c 0,-1.31464 0.40484,-1.408217 1.436,-0.33192 1.11589,1.164736 2.17739,1.408423 4.18975,0.961828 2.99715,-0.665152 6.06488,-2.46105 8.26721,-4.839773 2.34936,-2.537533 3.06704,-3.861962 3.06704,-5.660074 0,-1.879776 -0.24635,-2.328489 -1.15337,-2.100845 -1.09091,0.273805 -1.01163,-0.64535 0.22369,-2.593251 1.89415,-2.986765 1.90904,-3.997792 0.0485,-3.295526 -1.34381,0.507229 -1.57054,0.192355 -0.78587,-1.091357 0.84734,-1.38623 1.66702,-4.219315 1.66702,-5.761773 0,-1.59344 -0.15011,-1.649382 -6.72,-2.504381 -7.03632,-0.915699 -13.3315,-2.083267 -15.75572,-2.922217 -1.61886,-0.56024 -2.19932,-0.625914 -3.19152,-0.361082 -1.50898,0.402768 -1.57286,0.04109 -0.30015,-1.699366 4.09712,-5.602905 12.59838,-10.204513 21.16739,-11.457599 3.3191,-0.485368 3.37512,-0.508017 4.60275,-1.860881 3.64536,-4.017216 4.21975,-4.485342 7.39724,-6.028663 4.64626,-2.256706 8.17688,-3.20825 12.66856,-3.414333 5.53932,-0.254149 10.43752,0.825131 15.76038,3.472669 3.41471,1.698445 5.36632,3.290355 10.61269,8.656692 4.45607,4.557966 6.8114,7.872371 6.38466,8.984435 -0.0978,0.254752 0.70127,2.032893 1.7756,3.951427 2.7066,4.833389 7.07697,13.793907 8.41259,17.24824 0.61246,1.584 1.43704,4.176 1.8324,5.76 0.6102,2.444797 0.664,3.086208 0.35598,4.244592 -0.51489,1.936346 -0.45585,2.585488 0.3998,4.395408 0.85377,1.805968 2.1475,3.149274 3.53982,3.675475 0.78857,0.298026 1.07598,0.256915 1.76,-0.251747 0.44964,-0.334365 0.86354,-0.917491 0.91978,-1.295834 0.18723,-1.259507 0.69774,-0.709216 0.69774,0.752106 0,1.661277 -0.74279,2.628557 -2.25,2.93 -0.5225,0.104499 -0.95,0.316374 -0.95,0.470832 0,0.154458 0.612,0.820458 1.36,1.48 3.49787,3.084211 5.48179,5.15704 6.84403,7.150762 1.60871,2.354419 1.70204,3.337731 0.283,2.981577 -0.44387,-0.111405 -0.80703,-0.136825 -0.80703,-0.05649 0,0.08033 0.56152,1.859943 1.24781,3.954692 2.16532,6.60912 2.34535,8.615087 2.12547,23.682937 -0.23073,15.8111 -0.37893,17.04105 -2.36313,19.61175 -0.69616,0.90193 -1.19012,2.41185 -2.26185,6.91394 -1.66384,6.9894 -5.01899,17.23939 -7.69885,23.52 -4.05491,9.50323 -9.71565,19.78808 -12.92947,23.49121 l -1.08588,1.2512 -0.46909,-0.8953 -0.4691,-0.89531 -2.00601,2.6352 c -2.56642,3.37139 -4.54829,5.34112 -9.55579,9.49728 -6.36741,5.28486 -10.43254,7.71627 -14.21411,8.50163 -1.012,0.21018 -1.84,0.55161 -1.84,0.75874 0,0.65358 1.96294,5.26982 3.0849,7.25478 0.59245,1.04816 1.48734,2.28888 1.98863,2.75715 0.50129,0.46828 1.15252,1.31762 1.44717,1.88742 0.4348,0.8408 0.73014,1.03688 1.56752,1.04066 0.56748,0.003 1.67693,0.22927 2.46544,0.5038 2.49819,0.86977 4.29636,0.9391 5.50126,0.21211 0.84309,-0.5087 1.49862,-0.62052 3.14508,-0.53652 1.144,0.0584 3.16612,0.10308 4.49358,0.0993 2.22771,-0.006 2.53576,0.0772 4,1.08382 1.81935,1.25073 3.75418,4.43303 3.09566,5.09155 -0.26815,0.26815 -0.68933,0.0646 -1.63606,-0.79073 -1.67561,-1.51381 -2.9508,-2.14804 -4.31889,-2.14804 -1.08592,0 -1.12027,0.0384 -1.21589,1.36 l -0.0984,1.36 -2.88,0.10255 c -5.34443,0.19029 -6.3961,0.19673 -7.65278,0.0469 -1.18926,-0.14184 -1.26679,-0.0967 -1.52915,0.89059 -0.35974,1.35376 -0.77397,1.3218 -1.03695,-0.08 -0.24071,-1.28308 -0.26035,-1.29251 -1.28837,-0.61892 -0.89437,0.58601 -1.71974,0.61915 -6.26707,0.25163 -2.34523,-0.18954 -3.61394,-0.44283 -4.16,-0.8305 -0.43212,-0.30679 -1.09888,-0.78518 -1.48168,-1.0631 -0.61885,-0.44929 -0.77848,-0.45269 -1.44,-0.0307 -0.4092,0.26107 -2.05929,0.64151 -3.66687,0.84543 -4.49529,0.57023 -6.02336,-0.0325 -6.90219,-2.7223 -0.30348,-0.92884 -0.61445,-1.29981 -1.1537,-1.37627 -1.4646,-0.20768 -2.52945,1.02289 -3.08703,3.56741 -0.31268,1.42695 -0.96373,0.82526 -1.07028,-0.98913 -0.16359,-2.78587 1.68778,-5.40126 4.34601,-6.13952 1.54525,-0.42916 1.78661,-0.42096 3.72194,0.12637 0.89547,0.25326 2.44301,0.63311 3.43897,0.84412 1.67928,0.35578 1.89434,0.33206 2.96,-0.32656 0.63204,-0.39061 1.15056,-0.95047 1.15228,-1.24411 0.002,-0.29365 0.37605,-1.3259 0.83183,-2.2939 0.71584,-1.52027 0.80545,-2.05032 0.6579,-3.89137 -0.094,-1.17226 -0.52488,-3.11626 -0.95762,-4.32 -1.14366,-3.18132 -5.32584,-13.01346 -5.69495,-13.38863 -0.20876,-0.21219 -0.50986,-0.0619 -0.89365,0.44602 -0.83173,1.10074 -1.30664,0.58284 -1.30664,-1.4249 0,-1.88493 -0.10848,-1.97891 -1.46944,-1.27284 -0.49642,0.25755 -1.97282,0.72058 -3.28087,1.02896 l -2.37828,0.56068 -0.8357,-1.00079 -0.8357,-1.00078 -2.4,0.27778 c -1.32,0.15278 -2.5646,0.2841 -2.76577,0.29183 -0.64166,0.0246 -0.76605,-0.95489 -0.24838,-1.95596 0.27574,-0.53321 0.42217,-1.04863 0.32541,-1.14539 -0.0968,-0.0968 -1.22337,0.20532 -2.50359,0.67128 -2.70242,0.9836 -3.08802,1.02067 -3.58249,0.34444 -0.31937,-0.43676 -0.54545,-0.35655 -1.79528,0.6369 -1.66462,1.32314 -2.08727,1.40278 -2.33885,0.44075 -0.17324,-0.66249 -0.21704,-0.67175 -0.77768,-0.16437 -0.44592,0.40355 -0.68542,0.44635 -0.96018,0.17159 -0.58784,-0.58784 -1.21892,0.17671 -2.19102,2.65443 -0.48184,1.22816 -0.9958,2.307 -1.14212,2.39743 -0.14631,0.0904 -0.51668,-0.27601 -0.82304,-0.81429 -0.82653,-1.45228 -1.10985,-1.19716 -0.86317,0.77724 l 0.2199,1.76 h -0.96557 c -0.77407,0 -1.02868,0.18104 -1.28379,0.91287 -0.17503,0.50207 -0.80112,1.3644 -1.39131,1.91628 l -1.07307,1.00341 0.10453,3.87303 c 0.061,2.26093 0.29412,4.41037 0.56,5.16396 0.25051,0.71 0.45547,1.53524 0.45547,1.83385 0,0.97667 1.86503,4.01451 4.00284,6.52002 l 2.09607,2.45658 h 5.35626 c 5.16483,0 5.39772,0.0282 6.51633,0.78828 1.3155,0.89391 2.5085,3.07814 2.5085,4.59275 0,1.3133 -0.42403,1.28722 -1.64293,-0.10103 -1.30536,-1.48673 -1.99764,-1.44476 -2.63974,0.16 -0.56183,1.40416 -0.70522,1.48769 -1.45214,0.84593 -0.40454,-0.34759 -1.06141,-0.37189 -3.29679,-0.12197 -2.3857,0.26672 -3.32061,0.21352 -6.42983,-0.36593 -4.50306,-0.8392 -5.37042,-0.84429 -6.69084,-0.0392 -0.57625,0.35135 -1.26373,0.64023 -1.52773,0.64197 -0.264,0.002 -0.87357,0.20848 -1.35458,0.45941 -0.52887,0.2759 -0.94964,0.33481 -1.06445,0.14904 z"
     id="path4811"
     inkscape:connector-curvature="0"
     sodipodi:nodetypes="cscccccssccscccccccccscsscsscscccssccscsscsscsccsssscscssssccccccsccscssccscscssccccsscscccccccccscscccccccccccccccccccccccccsscccccsccscccccscccccscccccsccscscccccccccc" />
</svg>
